<svg width="26" height="26" viewBox="0 0 26 26" fill="none" xmlns="http://www.w3.org/2000/svg">
<g id="5925587_alert_bell_notification_icon 1">
<g id="XMLID_25_">
<path id="XMLID_269_" d="M21.676 16.4658L20.3277 14.1806V10.0115C20.3277 9.09236 20.1195 8.19607 19.7082 7.34295C19.3197 6.5406 18.7687 5.81189 18.073 5.1822C16.7756 4.00662 15.0871 3.29314 13.391 3.19666H13.3885C13.2691 3.18904 13.1498 3.1865 13.0305 3.18396C13.0203 3.18396 13.0102 3.18396 13.0025 3.18396H13C12.9924 3.18396 12.9873 3.18396 12.9797 3.18396C12.8553 3.18396 12.7334 3.18904 12.609 3.19666C10.9205 3.29822 9.23965 4.00916 7.94727 5.1822C7.25156 5.81189 6.70313 6.5406 6.31719 7.34295C5.90586 8.19607 5.69766 9.09236 5.69766 10.0115V14.1806L4.33164 16.4607C4.15391 16.7552 4.0625 17.0929 4.0625 17.4357C4.0625 18.4818 4.91309 19.3324 5.95918 19.3324H20.0408C21.0869 19.3324 21.9375 18.4818 21.9375 17.4357V17.4306C21.9375 17.0904 21.8486 16.7578 21.676 16.4658Z" fill="white"/>
<path id="XMLID_283_" d="M16.349 20.2667L15.9859 21.0132C15.4375 22.1431 14.3051 22.8185 12.9543 22.8185C11.7787 22.8185 10.659 22.138 10.0267 21.0462L9.57733 20.2667H16.349Z" fill="white"/>
</g>
</g>
</svg>
