<svg width="20" height="22" viewBox="0 0 20 22" fill="none" xmlns="http://www.w3.org/2000/svg">
<g id="avalanche-avax-logo 1">
<path id="Vector" d="M16.1676 4.42645H3.81897V15.6573H16.1676V4.42645Z" fill="white"/>
<path id="Vector_2" fill-rule="evenodd" clip-rule="evenodd" d="M19.9934 11C19.9934 16.5192 15.5193 20.9933 10.0001 20.9933C4.48089 20.9933 0.00671387 16.5192 0.00671387 11C0.00671387 5.48082 4.48089 1.00665 10.0001 1.00665C15.5193 1.00665 19.9934 5.48082 19.9934 11ZM7.16823 14.9768H5.2288C4.82127 14.9768 4.61997 14.9768 4.49723 14.8983C4.36465 14.8124 4.28364 14.67 4.27382 14.5128C4.26645 14.3681 4.36711 14.1912 4.56842 13.8377L9.35711 5.39701C9.56087 5.03858 9.66397 4.85936 9.79409 4.79308C9.93402 4.72189 10.101 4.72189 10.2409 4.79308C10.371 4.85936 10.4741 5.03858 10.6779 5.39701L11.6623 7.11549L11.6674 7.12426C11.8874 7.50878 11.999 7.70378 12.0478 7.90844C12.1018 8.13184 12.1018 8.36752 12.0478 8.59092C11.9987 8.79714 11.8882 8.99355 11.6648 9.38389L9.1494 13.8304L9.14289 13.8418C8.92136 14.2294 8.8091 14.4259 8.6535 14.5742C8.48411 14.7363 8.28034 14.854 8.05693 14.9204C7.85317 14.9768 7.62486 14.9768 7.16823 14.9768ZM12.0659 14.9768H14.8449C15.2549 14.9768 15.4611 14.9768 15.584 14.8959C15.7165 14.81 15.7999 14.6651 15.8074 14.508C15.8144 14.3679 15.716 14.198 15.523 13.865C15.5164 13.8537 15.5097 13.8422 15.5029 13.8304L14.1109 11.4491L14.0951 11.4223C13.8995 11.0915 13.8007 10.9245 13.6739 10.8599C13.5341 10.7887 13.3695 10.7887 13.2296 10.8599C13.1019 10.9262 12.9988 11.1005 12.7951 11.4516L11.408 13.8329L11.4032 13.8411C11.2002 14.1916 11.0987 14.3667 11.106 14.5104C11.1159 14.6676 11.1969 14.8124 11.3294 14.8983C11.4497 14.9768 11.6559 14.9768 12.0659 14.9768Z" fill="#E84142"/>
</g>
</svg>
