<svg width="20" height="20" viewBox="0 0 20 20" fill="none" xmlns="http://www.w3.org/2000/svg">
<g id="2639867_bag_money_icon 1">
<path id="Vector" d="M14.1661 1H5.8339C5.24469 1 4.84133 1.53625 5.06051 2.02825L5.83306 4H14.1669L14.9395 2.02825C15.1587 1.53625 14.7553 1 14.1661 1Z" fill="#2E3138"/>
<path id="Vector_2" d="M13.75 5H6.25C6.25 5 1 9.73684 1 15.2632C1 18.4211 3.25 20 4.75 20C6.25 20 10 20 10 20C10 20 13.75 20 15.25 20C16.75 20 19 18.4211 19 15.2632C19 9.73684 13.75 5 13.75 5ZM10.75 15.9721V17.2368H9.25V15.9761C8.14675 15.7582 7.453 15.0445 7.4125 14.0016H8.7115C8.77375 14.5495 9.29875 14.9008 10.0555 14.9008C10.7537 14.9008 11.248 14.5447 11.248 14.0339C11.248 13.6029 10.9278 13.355 10.1403 13.1766L9.304 12.9895C8.134 12.7321 7.5595 12.0903 7.5595 11.06C7.5595 10.0234 8.21125 9.28447 9.25 9.04132V7.76316H10.75V9.03895C11.7625 9.27737 12.439 10.0037 12.472 10.985H11.2083C11.146 10.4513 10.6742 10.0953 10.0247 10.0953C9.35275 10.0953 8.908 10.4229 8.908 10.9384C8.908 11.3553 9.21475 11.5945 9.967 11.7626L10.741 11.9363C12.0317 12.2221 12.5875 12.8079 12.5875 13.8563C12.5875 14.9853 11.899 15.7424 10.75 15.9721Z" fill="#2E3138"/>
<path id="Vector_3" d="M12 2H8C8 0.895333 8.89533 0 10 0C11.1047 0 12 0.895333 12 2Z" fill="#2E3138"/>
</g>
</svg>
