<svg width="142" height="36" viewBox="0 0 142 36" fill="none" xmlns="http://www.w3.org/2000/svg">
<g id="Logotype" clip-path="url(#clip0_1230_9)">
<path id="Vector" d="M13.8231 0.925181L0.839358 8.13135C0.167872 8.50402 0 9.22319 0 9.53614V11.7994C0 12.5279 0.559571 12.3632 0.839358 12.1897C5.04488 9.75291 13.6133 4.79102 14.2428 4.43721C14.8723 4.08341 15.5543 4.28979 15.8166 4.43721C19.279 6.40568 26.3348 10.4207 26.8594 10.7328C27.384 11.045 27.5326 11.7301 27.5414 12.0336V16.118C27.5414 16.7631 26.9643 17.2192 26.6758 17.3667C25.7752 17.8176 23.7957 18.8079 23.0823 19.1617C22.3688 19.5155 21.596 19.3091 21.2987 19.1617C17.3642 17.0545 9.36409 12.7828 8.83946 12.5539C8.31491 12.325 7.81652 12.4585 7.6329 12.5539L0.813123 16.6643C0.183609 16.9972 0.00874329 17.8089 0 18.1732V25.6915C0 26.6072 0.647004 27.0789 0.970505 27.2003L14.6363 34.9789C15.4127 35.4575 16.2014 35.1783 16.4986 34.9789C20.6691 32.6549 29.1886 27.9131 29.9021 27.5385C30.6155 27.1639 30.8114 26.3245 30.8201 25.9516V23.9745C30.8201 23.1628 30.2081 23.3241 29.9021 23.5062C26.0113 25.7522 17.978 30.4054 16.9708 31.0506C15.9635 31.6957 14.9947 31.3194 14.6363 31.0506C11.3663 29.2122 4.66892 25.4573 4.0394 25.1452C3.40989 24.833 3.23502 24.0265 3.22628 23.6623V20.0202C3.22628 19.2085 3.76836 18.6587 4.0394 18.4853C4.79133 18.1124 6.66764 16.9519 7.6329 16.4732C8.59814 15.9946 9.33784 16.6293 9.6788 16.7854C13.3335 18.7105 20.7688 22.6581 21.5872 23.116C22.4056 23.5739 23.2222 23.3067 23.5282 23.116L29.9021 19.2397C30.6784 18.99 30.8376 17.9737 30.8201 17.4967V10.4467C30.8201 9.21878 30.2081 8.70367 29.9021 8.59959L29.1151 8.13135C25.4692 6.05014 17.8678 1.69523 16.6297 0.925181C15.3917 0.155137 14.2428 0.604329 13.8231 0.925181Z" fill="#00D355"/>
<path id="Vector_2" d="M22.6588 11.9863L16.5288 8.60985C15.7534 8.1827 15.1577 8.36257 14.9569 8.50591C14.6862 8.72238 14.0138 9.26435 13.4899 9.70071C12.9659 10.137 13.3414 10.5751 13.5947 10.7396C16.0397 12.0729 21.0503 14.807 21.5324 15.0771C22.0143 15.3472 22.4317 15.3801 22.5802 15.3628C23.5495 15.3108 23.5233 14.0122 23.5233 13.233C23.5233 12.6097 22.947 12.1421 22.6588 11.9863Z" fill="#00D355"/>
<path id="Vector_3" d="M8.32785 23.7101L14.4579 27.0866C15.2333 27.5137 15.8289 27.3338 16.0297 27.1905C16.3004 26.9741 16.9728 26.4321 17.4968 25.9957C18.0207 25.5594 17.6452 25.1213 17.3919 24.9568C14.9469 23.6235 9.93629 20.8895 9.45426 20.6194C8.9723 20.3492 8.5549 20.3163 8.40637 20.3337C7.43713 20.3855 7.46333 21.6842 7.46333 22.4634C7.46333 23.0868 8.03963 23.5543 8.32785 23.7101Z" fill="#00D355"/>
<path id="Vector_4" d="M43.5536 24.216V13.4301V11.7103H53.4801C54.4589 11.7103 55.2404 11.8165 55.8248 12.0288C56.4237 12.227 56.8693 12.5029 57.1615 12.8568C57.4682 13.1965 57.6655 13.5999 57.7531 14.067C57.8554 14.52 57.9065 15.0012 57.9065 15.5108V17.1881C57.9065 17.8676 57.7896 18.4974 57.5559 19.0778C57.3367 19.644 56.9204 20.104 56.3069 20.4579C55.7079 20.7976 54.8387 20.9674 53.6992 20.9674H52.1873C51.267 20.9674 50.3902 21.0099 49.5867 20.9674C48.6446 20.9674 48.221 20.9958 47.8266 20.9674V24.216H43.5536ZM47.8266 18.0799H52.3626C52.8446 18.0799 53.1806 17.9879 53.3705 17.8039C53.5604 17.6198 53.6554 17.3227 53.6554 16.9122V15.8293C53.6554 15.4188 53.5677 15.1216 53.3924 14.9376C53.2172 14.7394 52.8811 14.6403 52.3845 14.6403H47.8266V18.0799Z" fill="#302779"/>
<path id="Vector_5" d="M43.5536 24.216V13.4301V11.7103H53.4801C54.4589 11.7103 55.2404 11.8165 55.8248 12.0288C56.4237 12.227 56.8693 12.5029 57.1615 12.8568C57.4682 13.1965 57.6655 13.5999 57.7531 14.067C57.8554 14.52 57.9065 15.0012 57.9065 15.5108V17.1881C57.9065 17.8676 57.7896 18.4974 57.5559 19.0778C57.3367 19.644 56.9204 20.104 56.3069 20.4579C55.7079 20.7976 54.8387 20.9674 53.6992 20.9674H52.1873C51.267 20.9674 50.3902 21.0099 49.5867 20.9674C48.6446 20.9674 48.221 20.9958 47.8266 20.9674V24.216H43.5536ZM47.8266 18.0799H52.3626C52.8446 18.0799 53.1806 17.9879 53.3705 17.8039C53.5604 17.6198 53.6554 17.3227 53.6554 16.9122V15.8293C53.6554 15.4188 53.5677 15.1216 53.3924 14.9376C53.2172 14.7394 52.8811 14.6403 52.3845 14.6403H47.8266V18.0799Z" fill="white"/>
<path id="Vector_6" d="M60.0909 24.2159V21.7318C60.3101 21.5903 60.6388 21.392 61.077 21.1373C61.5153 20.8683 62.0193 20.564 62.589 20.2243C63.1588 19.8846 63.7431 19.5307 64.342 19.1627C64.941 18.7947 65.5107 18.4408 66.0513 18.1011C66.5917 17.7614 67.0519 17.4571 67.4317 17.1881C67.9138 16.8626 68.2425 16.5724 68.4178 16.3176C68.5931 16.0628 68.6808 15.7939 68.6808 15.5108V15.2136C68.6808 14.9304 68.5931 14.7323 68.4178 14.619C68.2571 14.4916 67.9357 14.428 67.4536 14.428H66.358C64.9264 14.428 63.8042 14.428 62.7764 14.428C61.7487 14.428 61.0635 14.428 60.3101 14.428V11.4979C60.7209 11.4979 60.5496 11.4979 61.2348 11.4979C62.0056 11.4979 62.7788 11.4979 64.0611 11.4979C65.1745 11.4979 66.4895 11.4979 67.8919 11.4979H68.0453C69.3016 11.4979 70.2877 11.6394 71.0035 11.9226C71.7194 12.1915 72.2234 12.5737 72.5155 13.0691C72.8077 13.5645 72.9538 14.1448 72.9538 14.8101V15.256C72.9538 16.2468 72.6543 17.0536 72.0553 17.6765C71.4564 18.2993 70.6894 18.8725 69.7545 19.3963C69.024 19.8067 68.3667 20.1535 67.7824 20.4366C67.2126 20.7197 66.7451 20.9603 66.3799 21.1585V21.3284H73.6111V24.2159H60.0909Z" fill="#302779"/>
<path id="Vector_7" d="M60.0909 24.2159V21.7318C60.3101 21.5903 60.6388 21.392 61.077 21.1373C61.5153 20.8683 62.0193 20.564 62.589 20.2243C63.1588 19.8846 63.7431 19.5307 64.342 19.1627C64.941 18.7947 65.5107 18.4408 66.0513 18.1011C66.5917 17.7614 67.0519 17.4571 67.4317 17.1881C67.9138 16.8626 68.2425 16.5724 68.4178 16.3176C68.5931 16.0628 68.6808 15.7939 68.6808 15.5108V15.2136C68.6808 14.9304 68.5931 14.7323 68.4178 14.619C68.2571 14.4916 67.9357 14.428 67.4536 14.428H66.358C64.9264 14.428 63.8042 14.428 62.7764 14.428C61.7487 14.428 61.0635 14.428 60.3101 14.428V11.4979C60.7209 11.4979 60.5496 11.4979 61.2348 11.4979C62.0056 11.4979 62.7788 11.4979 64.0611 11.4979C65.1745 11.4979 66.4895 11.4979 67.8919 11.4979H68.0453C69.3016 11.4979 70.2877 11.6394 71.0035 11.9226C71.7194 12.1915 72.2234 12.5737 72.5155 13.0691C72.8077 13.5645 72.9538 14.1448 72.9538 14.8101V15.256C72.9538 16.2468 72.6543 17.0536 72.0553 17.6765C71.4564 18.2993 70.6894 18.8725 69.7545 19.3963C69.024 19.8067 68.3667 20.1535 67.7824 20.4366C67.2126 20.7197 66.7451 20.9603 66.3799 21.1585V21.3284H73.6111V24.2159H60.0909Z" fill="white"/>
<path id="Vector_8" d="M76.0162 24.216V13.4301V11.7103H85.943C86.9217 11.7103 87.7031 11.8165 88.2872 12.0288C88.8867 12.227 89.3318 12.5029 89.6243 12.8568C89.9305 13.1965 90.1278 13.5999 90.2161 14.067C90.3182 14.52 90.3688 15.0012 90.3688 15.5108V17.1881C90.3688 17.8676 90.2522 18.4974 90.0188 19.0778C89.7993 19.644 89.3833 20.104 88.7692 20.4579C88.1705 20.7976 87.3016 20.9674 86.1618 20.9674H84.6497C83.7294 20.9674 82.9035 20.9674 81.9617 20.9674C81.1903 20.9674 80.7098 20.9674 80.2891 20.9674V24.216H76.0162ZM80.2891 18.0799H84.8255C85.3075 18.0799 85.6429 17.9879 85.8333 17.8039C86.0229 17.6198 86.118 17.3227 86.118 16.9122V15.8293C86.118 15.4188 86.0305 15.1216 85.8548 14.9376C85.6798 14.7394 85.3436 14.6403 84.8469 14.6403H80.2891V18.0799Z" fill="#302779"/>
<path id="Vector_9" d="M76.0162 24.216V13.4301V11.7103H85.943C86.9217 11.7103 87.7031 11.8165 88.2872 12.0288C88.8867 12.227 89.3318 12.5029 89.6243 12.8568C89.9305 13.1965 90.1278 13.5999 90.2161 14.067C90.3182 14.52 90.3688 15.0012 90.3688 15.5108V17.1881C90.3688 17.8676 90.2522 18.4974 90.0188 19.0778C89.7993 19.644 89.3833 20.104 88.7692 20.4579C88.1705 20.7976 87.3016 20.9674 86.1618 20.9674H84.6497C83.7294 20.9674 82.9035 20.9674 81.9617 20.9674C81.1903 20.9674 80.7098 20.9674 80.2891 20.9674V24.216H76.0162ZM80.2891 18.0799H84.8255C85.3075 18.0799 85.6429 17.9879 85.8333 17.8039C86.0229 17.6198 86.118 17.3227 86.118 16.9122V15.8293C86.118 15.4188 86.0305 15.1216 85.8548 14.9376C85.6798 14.7394 85.3436 14.6403 84.8469 14.6403H80.2891V18.0799Z" fill="white"/>
<path id="Vector_10" d="M93.4298 24.216V11.7103H103.422C104.795 11.7103 105.796 11.9792 106.424 12.5172C107.053 13.0409 107.367 13.6778 107.367 14.428V15.0649C107.367 15.6453 107.235 16.1266 106.972 16.5088C106.724 16.8768 106.453 17.1386 106.161 17.2943C106.804 17.4925 107.315 17.8393 107.695 18.3347C108.075 18.8159 108.265 19.4529 108.265 20.2456V20.6277C108.265 21.0524 108.214 21.477 108.112 21.9016C108.009 22.3263 107.812 22.7155 107.52 23.0694C107.242 23.4092 106.841 23.6852 106.315 23.8975C105.804 24.1098 105.131 24.216 104.299 24.216H93.4298ZM97.7029 16.53H102.086C102.466 16.53 102.728 16.4521 102.875 16.2964C103.021 16.1407 103.093 15.9284 103.093 15.6595V15.4471C103.093 15.1499 103.021 14.9376 102.875 14.8102C102.728 14.6828 102.4 14.6191 101.888 14.6191H97.7029V16.53ZM97.7029 21.3072H102.984C103.364 21.3072 103.627 21.2435 103.773 21.1161C103.919 20.9745 103.992 20.7552 103.992 20.4579V20.0757C103.992 19.8067 103.897 19.6015 103.707 19.46C103.517 19.3043 103.189 19.2264 102.721 19.2264H97.7029V21.3072Z" fill="#302779"/>
<path id="Vector_11" d="M93.4298 24.216V11.7103H103.422C104.795 11.7103 105.796 11.9792 106.424 12.5172C107.053 13.0409 107.367 13.6778 107.367 14.428V15.0649C107.367 15.6453 107.235 16.1266 106.972 16.5088C106.724 16.8768 106.453 17.1386 106.161 17.2943C106.804 17.4925 107.315 17.8393 107.695 18.3347C108.075 18.8159 108.265 19.4529 108.265 20.2456V20.6277C108.265 21.0524 108.214 21.477 108.112 21.9016C108.009 22.3263 107.812 22.7155 107.52 23.0694C107.242 23.4092 106.841 23.6852 106.315 23.8975C105.804 24.1098 105.131 24.216 104.299 24.216H93.4298ZM97.7029 16.53H102.086C102.466 16.53 102.728 16.4521 102.875 16.2964C103.021 16.1407 103.093 15.9284 103.093 15.6595V15.4471C103.093 15.1499 103.021 14.9376 102.875 14.8102C102.728 14.6828 102.4 14.6191 101.888 14.6191H97.7029V16.53ZM97.7029 21.3072H102.984C103.364 21.3072 103.627 21.2435 103.773 21.1161C103.919 20.9745 103.992 20.7552 103.992 20.4579V20.0757C103.992 19.8067 103.897 19.6015 103.707 19.46C103.517 19.3043 103.189 19.2264 102.721 19.2264H97.7029V21.3072Z" fill="white"/>
<path id="Vector_12" d="M111.341 24.2159V11.7314H125.409V14.6189H115.614V16.3813H122.868V19.3325H115.614V21.3071H125.058L126.412 24.2159C126.155 24.2159 126.155 24.2159 125.727 24.2159C125.299 24.2159 124.708 24.2159 123.743 24.2159H111.341Z" fill="#302779"/>
<path id="Vector_13" d="M111.341 24.2159V11.7314H125.409V14.6189H115.614V16.3813H122.868V19.3325H115.614V21.3071H125.058L126.412 24.2159C126.155 24.2159 126.155 24.2159 125.727 24.2159C125.299 24.2159 124.708 24.2159 123.743 24.2159H111.341Z" fill="white"/>
<path id="Vector_14" d="M132.468 24.216V14.5978H127.253V11.7103H142V14.5978H136.719V24.216H132.468Z" fill="#302779"/>
<path id="Vector_15" d="M132.468 24.216V14.5978H127.253V11.7103H142V14.5978H136.719V24.216H132.468Z" fill="white"/>
</g>
<defs>
<clipPath id="clip0_1230_9">
<rect width="142" height="35" fill="white" transform="translate(0 0.5)"/>
</clipPath>
</defs>
</svg>
