<svg width="20" height="22" viewBox="0 0 20 22" fill="none" xmlns="http://www.w3.org/2000/svg">
<g id="Group 237728">
<path id="Vector" d="M9.99606 0.998047C15.5214 0.998047 20 5.4766 20 11.002C20 16.5274 15.5214 21.002 10 21.002C4.47462 21.002 2.59168e-06 16.5234 2.59168e-06 11.002C-0.00393287 5.4766 4.47462 0.998047 9.99606 0.998047Z" fill="#8247E5"/>
<g id="Group">
<g id="Clip path group">
<mask id="mask0_1230_151" style="mask-type:luminance" maskUnits="userSpaceOnUse" x="3" y="5" width="14" height="12">
<g id="SVGID_00000119824040907289936360000005545950198423505064_">
<path id="Vector_2" d="M16.4817 5.32312H3.37268V16.8107H16.4817V5.32312Z" fill="white"/>
</g>
</mask>
<g mask="url(#mask0_1230_151)">
<g id="Group_2">
<path id="Vector_3" d="M13.2744 8.82177C13.0343 8.68403 12.7274 8.68403 12.4558 8.82177L10.5432 9.95518L9.24448 10.6754L7.36726 11.8048C7.1272 11.9426 6.82023 11.9426 6.54869 11.8048L5.08076 10.9115C4.8407 10.7738 4.67147 10.4983 4.67147 10.1913V8.47545C4.67147 8.19997 4.80922 7.92842 5.08076 7.75526L6.54869 6.89733C6.78875 6.75959 7.09572 6.75959 7.36726 6.89733L8.83519 7.79068C9.07525 7.92842 9.24448 8.2039 9.24448 8.51087V9.64428L10.5432 8.88867V7.72378C10.5432 7.44829 10.4054 7.17675 10.1339 7.00359L7.40268 5.39005C7.16262 5.25231 6.85565 5.25231 6.58411 5.39005L3.786 7.03901C3.51445 7.17675 3.37671 7.45223 3.37671 7.72378V10.9469C3.37671 11.2224 3.51445 11.4939 3.786 11.6671L6.55262 13.2806C6.79269 13.4184 7.09965 13.4184 7.3712 13.2806L9.24841 12.1827L10.5471 11.427L12.4243 10.329C12.6644 10.1913 12.9714 10.1913 13.2429 10.329L14.7108 11.187C14.9509 11.3247 15.1201 11.6002 15.1201 11.9072V13.623C15.1201 13.8985 14.9824 14.1701 14.7108 14.3432L13.2783 15.2011C13.0383 15.3389 12.7313 15.3389 12.4597 15.2011L10.9879 14.3432C10.7478 14.2055 10.5786 13.93 10.5786 13.623V12.525L9.2799 13.2806V14.4141C9.2799 14.6895 9.41764 14.9611 9.68918 15.1342L12.4558 16.7478C12.6959 16.8855 13.0028 16.8855 13.2744 16.7478L16.041 15.1342C16.2811 14.9965 16.4503 14.721 16.4503 14.4141V11.1555C16.4503 10.88 16.3126 10.6085 16.041 10.4353L13.2744 8.82177Z" fill="white"/>
</g>
</g>
</g>
</g>
</g>
</svg>
