<svg width="25" height="26" viewBox="0 0 25 26" fill="none" xmlns="http://www.w3.org/2000/svg">
<g id=" ">
<g id="Group">
<path id="Vector" d="M24.0909 7.5H5.90914C5.58426 7.5 5.28431 7.30935 5.12175 6.99989C4.95942 6.69066 4.95942 6.30932 5.12175 6.00011C5.2843 5.69065 5.58424 5.5 5.90914 5.5H24.0909C24.4157 5.5 24.7157 5.69065 24.8782 6.00011C25.0406 6.30934 25.0406 6.69068 24.8782 6.99989C24.7157 7.30935 24.4158 7.5 24.0909 7.5Z" fill="white"/>
<path id="Vector_2" d="M24.0909 13.5H5.90914C5.58426 13.5 5.28431 13.3093 5.12175 12.9999C4.95942 12.6907 4.95942 12.3093 5.12175 12.0001C5.2843 11.6907 5.58424 11.5 5.90914 11.5H24.0909C24.4157 11.5 24.7157 11.6907 24.8782 12.0001C25.0406 12.3093 25.0406 12.6907 24.8782 12.9999C24.7157 13.3093 24.4158 13.5 24.0909 13.5Z" fill="white"/>
<path id="Vector_3" d="M15.0909 19.5H5.90914C5.58426 19.5 5.28431 19.3093 5.12175 18.9999C4.95942 18.6907 4.95942 18.3093 5.12175 18.0001C5.2843 17.6907 5.58424 17.5 5.90914 17.5H15.0909C15.4157 17.5 15.7157 17.6907 15.8782 18.0001C16.0406 18.3093 16.0406 18.6907 15.8782 18.9999C15.7157 19.3093 15.4158 19.5 15.0909 19.5Z" fill="white"/>
</g>
</g>
</svg>
